Coordinates
version=1
nRows=10
nColumns=22
inDegrees=yes

Units are S.I. units (second, meters, Newtons, ...)
If the header above contains a line with 'inDegrees', this indicates whether rotational values are in degrees (yes) or radians (no).

endheader
time	pelvis_tilt	pelvis_list	pelvis_rotation	pelvis_tx	pelvis_ty	pelvis_tz	hip_flexion_r	hip_adduction_r	hip_rotation_r	knee_angle_r	ankle_angle_r	subtalar_angle_r	hip_flexion_l	hip_adduction_l	hip_rotation_l	knee_angle_l	ankle_angle_l	subtalar_angle_l	lumbar_extension	lumbar_bending	lumbar_rotation
      0.93000000	     -5.07767685	      2.69209889	    -27.56674287	     -0.90684595	      0.89189742	     -0.40559963	      3.08472655	     -0.69873591	     -7.03219684	    -11.75786926	     22.68235592	     -3.28952902	      5.28354159	      0.37734116	     -8.74175298	    -16.69954721	     21.64860124	    -10.96107393	     -3.06544613	     -3.16623445	      3.06385645
      0.94000000	     -5.25691671	      2.95081130	    -27.56775892	     -0.90431160	      0.89120902	     -0.40605682	      4.04602146	     -0.93913394	     -6.46545211	    -13.21185767	     22.88240330	     -4.16958064	      5.34808849	      0.65080424	     -8.66970307	    -16.53546422	     21.62473515	    -10.84824358	     -3.02963519	     -3.45570217	      3.05466019
      0.95000000	     -5.42324839	      3.23382144	    -27.60784406	     -0.90187768	      0.89049938	     -0.40644044	      5.16816107	     -1.18274756	     -5.75355150	    -14.94274458	     23.09323770	     -5.34442679	      5.40650311	      0.94462867	     -8.64507098	    -16.36184320	     21.63861926	    -10.71634117	     -3.02491305	     -3.78156842	      3.06754758
      0.96000000	     -5.61989782	      3.55882362	    -27.71278433	     -0.89960807	      0.88970374	     -0.40669940	      6.53765077	     -1.41052904	     -4.87821817	    -17.00657524	     23.21740205	     -6.51668822	      5.52182746	      1.24228951	     -8.74243240	    -16.20218167	     21.62514584	    -10.59147388	     -2.99727777	     -4.13980566	      3.13548283
      0.97000000	     -5.81186721	      3.89624412	    -27.85774761	     -0.89746854	      0.88885764	     -0.40681303	      8.09265606	     -1.59506133	     -3.88273241	    -19.38835960	     23.37550454	     -7.93007267	      5.62887809	      1.53896157	     -8.89057234	    -16.02448536	     21.61831533	    -10.44484457	     -2.99895622	     -4.51952705	      3.23118220
      0.98000000	     -6.01565123	      4.25772088	    -28.05408144	     -0.89544826	      0.88792606	     -0.40673442	      9.85692231	     -1.72801639	     -2.81995038	    -22.09069918	     23.45176227	     -9.27602733	      5.75467709	      1.82619578	     -9.17099300	    -15.84489557	     21.56878044	    -10.29277095	     -2.99743321	     -4.92408500	      3.37536667
      0.99000000	     -6.18158756	      4.62134151	    -28.22890890	     -0.89346380	      0.88696785	     -0.40655024	     11.70712181	     -1.80642803	     -1.73093736	    -25.01553750	     23.60087468	    -10.93674176	      5.83295520	      2.13096221	     -9.39661798	    -15.64328895	     21.59733182	    -10.06179655	     -3.06637744	     -5.35422046	      3.45836639
      1.00000000	     -6.35821020	      4.99555949	    -28.42593876	     -0.89147606	      0.88593330	     -0.40617373	     13.69063029	     -1.81994341	     -0.70463911	    -28.14615484	     23.58225025	    -12.17673580	      5.91384321	      2.41466948	     -9.76304040	    -15.43598338	     21.56975844	     -9.82536839	     -3.12390169	     -5.79105791	      3.55357567
      1.01000000	     -6.47304573	      5.33243210	    -28.55464708	     -0.88928422	      0.88494579	     -0.40573075	     15.62114755	     -1.79071584	      0.15825650	    -31.34506574	     23.63806656	    -13.70479165	      5.86184868	      2.70801865	    -10.00939112	    -15.14486028	     21.60133878	     -9.46727266	     -3.27600063	     -6.21198923	      3.57236178
      1.02000000	     -6.59763579	      5.65161731	    -28.63835817	     -0.88690500	      0.88392032	     -0.40520366	     17.56436818	     -1.70665156	      0.88167153	    -34.56830028	     23.57754666	    -14.80003054	      5.78603087	      2.97480387	    -10.27440717	    -14.83561749	     21.65371756	     -9.08792896	     -3.42352035	     -6.59609958	      3.51483608
